<mxfile host="65bd71144e">
    <diagram id="7VP2AyVYjuAuci0hmrgX" name="ページ1">
        <mxGraphModel dx="1057" dy="697" grid="1" gridSize="10" guides="1" tooltips="1" connect="1" arrows="1" fold="1" page="1" pageScale="1" pageWidth="827" pageHeight="1169" background="#ffffff" math="0" shadow="0">
            <root>
                <mxCell id="0"/>
                <mxCell id="1" parent="0"/>
                <mxCell id="2" value="" style="sketch=0;pointerEvents=1;shadow=0;dashed=0;html=1;strokeColor=none;fillColor=#505050;labelPosition=center;verticalLabelPosition=bottom;verticalAlign=top;outlineConnect=0;align=center;shape=mxgraph.office.users.mobile_user;" vertex="1" parent="1">
                    <mxGeometry y="556" width="59" height="56" as="geometry"/>
                </mxCell>
                <mxCell id="3" value="ブラウザ" style="swimlane;whiteSpace=wrap;html=1;" vertex="1" parent="1">
                    <mxGeometry x="80" y="493" width="190" height="147" as="geometry">
                        <mxRectangle x="80" y="493" width="90" height="30" as="alternateBounds"/>
                    </mxGeometry>
                </mxCell>
                <mxCell id="5" value="&lt;font color=&quot;#004c99&quot; size=&quot;1&quot; style=&quot;&quot; face=&quot;yu gothic&quot;&gt;&lt;b style=&quot;font-size: 17px;&quot;&gt;フロントエンド&lt;/b&gt;&lt;/font&gt;&lt;br&gt;&lt;br&gt;利用者から直接見える部分&lt;br&gt;それぞれのユーザーが&lt;br&gt;自身のスマホやPCからアクセス" style="text;html=1;align=center;verticalAlign=middle;resizable=0;points=[];autosize=1;strokeColor=none;fillColor=none;" vertex="1" parent="3">
                    <mxGeometry x="-5" y="33" width="200" height="90" as="geometry"/>
                </mxCell>
                <mxCell id="4" value="" style="shape=datastore;whiteSpace=wrap;html=1;" vertex="1" parent="1">
                    <mxGeometry x="700" y="525" width="120" height="120" as="geometry"/>
                </mxCell>
                <mxCell id="6" value="データベース" style="text;html=1;align=center;verticalAlign=middle;resizable=0;points=[];autosize=1;strokeColor=none;fillColor=none;fontColor=#004C99;fontStyle=1;fontFamily=yu gothic;fontSize=17;" vertex="1" parent="1">
                    <mxGeometry x="695" y="645" width="130" height="30" as="geometry"/>
                </mxCell>
                <mxCell id="7" value="&lt;font color=&quot;#004c99&quot; size=&quot;1&quot; face=&quot;yu gothic&quot;&gt;&lt;b style=&quot;font-size: 20px;&quot;&gt;API&lt;/b&gt;&lt;/font&gt;&lt;br&gt;&lt;br&gt;利用者からは直接見えないシステムの裏側の部分" style="rounded=0;whiteSpace=wrap;html=1;" vertex="1" parent="1">
                    <mxGeometry x="440" y="510" width="116" height="150" as="geometry"/>
                </mxCell>
                <mxCell id="8" value="" style="sketch=0;pointerEvents=1;shadow=0;dashed=0;html=1;strokeColor=none;fillColor=#505050;labelPosition=center;verticalLabelPosition=bottom;verticalAlign=top;outlineConnect=0;align=center;shape=mxgraph.office.users.user;" vertex="1" parent="1">
                    <mxGeometry y="680" width="32" height="35" as="geometry"/>
                </mxCell>
                <mxCell id="9" value="" style="sketch=0;pointerEvents=1;shadow=0;dashed=0;html=1;strokeColor=none;fillColor=#505050;labelPosition=center;verticalLabelPosition=bottom;verticalAlign=top;outlineConnect=0;align=center;shape=mxgraph.office.users.user;" vertex="1" parent="1">
                    <mxGeometry y="755" width="32" height="35" as="geometry"/>
                </mxCell>
                <mxCell id="10" value="" style="sketch=0;pointerEvents=1;shadow=0;dashed=0;html=1;strokeColor=none;fillColor=#505050;labelPosition=center;verticalLabelPosition=bottom;verticalAlign=top;outlineConnect=0;align=center;shape=mxgraph.office.users.user;" vertex="1" parent="1">
                    <mxGeometry y="830" width="32" height="35" as="geometry"/>
                </mxCell>
                <mxCell id="12" value="" style="shape=flexArrow;endArrow=classic;html=1;" edge="1" parent="1">
                    <mxGeometry width="50" height="50" relative="1" as="geometry">
                        <mxPoint x="570" y="574" as="sourcePoint"/>
                        <mxPoint x="680" y="574" as="targetPoint"/>
                    </mxGeometry>
                </mxCell>
                <mxCell id="13" value="データの保存" style="text;html=1;strokeColor=none;fillColor=none;align=center;verticalAlign=middle;whiteSpace=wrap;rounded=0;" vertex="1" parent="1">
                    <mxGeometry x="580" y="539" width="90" height="30" as="geometry"/>
                </mxCell>
                <mxCell id="14" value="" style="shape=flexArrow;endArrow=classic;html=1;" edge="1" parent="1">
                    <mxGeometry width="50" height="50" relative="1" as="geometry">
                        <mxPoint x="680" y="604" as="sourcePoint"/>
                        <mxPoint x="570" y="604" as="targetPoint"/>
                    </mxGeometry>
                </mxCell>
                <mxCell id="15" value="データの取り出し" style="text;html=1;strokeColor=none;fillColor=none;align=center;verticalAlign=middle;whiteSpace=wrap;rounded=0;" vertex="1" parent="1">
                    <mxGeometry x="575" y="614" width="100" height="30" as="geometry"/>
                </mxCell>
                <mxCell id="16" value="ブラウザ" style="swimlane;whiteSpace=wrap;html=1;" vertex="1" parent="1">
                    <mxGeometry x="40" y="665" width="80" height="65" as="geometry"/>
                </mxCell>
                <mxCell id="17" value="ブラウザ" style="swimlane;whiteSpace=wrap;html=1;" vertex="1" parent="1">
                    <mxGeometry x="40" y="740" width="80" height="65" as="geometry"/>
                </mxCell>
                <mxCell id="18" value="ブラウザ" style="swimlane;whiteSpace=wrap;html=1;" vertex="1" parent="1">
                    <mxGeometry x="40" y="815" width="80" height="65" as="geometry"/>
                </mxCell>
                <mxCell id="24" value="" style="endArrow=none;dashed=1;html=1;dashPattern=1 3;strokeWidth=5;fontFamily=yu gothic;fontSize=17;fontColor=#FF8000;jumpSize=7;" edge="1" parent="1">
                    <mxGeometry width="50" height="50" relative="1" as="geometry">
                        <mxPoint x="40" y="950" as="sourcePoint"/>
                        <mxPoint x="40" y="890" as="targetPoint"/>
                    </mxGeometry>
                </mxCell>
                <mxCell id="26" value="APIリクエスト" style="text;html=1;strokeColor=none;fillColor=none;align=center;verticalAlign=middle;whiteSpace=wrap;rounded=0;fontFamily=Helvetica;fontSize=11;fontColor=#000000;" vertex="1" parent="1">
                    <mxGeometry x="310" y="478" width="90" height="27" as="geometry"/>
                </mxCell>
                <mxCell id="29" value="" style="shape=flexArrow;endArrow=classic;html=1;" edge="1" parent="1">
                    <mxGeometry width="50" height="50" relative="1" as="geometry">
                        <mxPoint x="290" y="513" as="sourcePoint"/>
                        <mxPoint x="420" y="513" as="targetPoint"/>
                    </mxGeometry>
                </mxCell>
                <mxCell id="32" value="・団体情報の取得&lt;br&gt;・整理券の取得&lt;br&gt;・自分の持ってい&lt;br&gt;&amp;nbsp; &amp;nbsp;る整理券の一覧&amp;nbsp; &amp;nbsp; など" style="text;html=1;strokeColor=default;fillColor=none;align=left;verticalAlign=middle;whiteSpace=wrap;rounded=0;fontFamily=Helvetica;fontSize=11;fontColor=#000000;strokeWidth=1;" vertex="1" parent="1">
                    <mxGeometry x="293" y="530" width="124" height="60" as="geometry"/>
                </mxCell>
                <mxCell id="34" value="" style="shape=flexArrow;endArrow=classic;html=1;" edge="1" parent="1">
                    <mxGeometry width="50" height="50" relative="1" as="geometry">
                        <mxPoint x="420" y="610" as="sourcePoint"/>
                        <mxPoint x="290" y="610" as="targetPoint"/>
                    </mxGeometry>
                </mxCell>
                <mxCell id="35" value="APIレスポンス" style="text;html=1;strokeColor=none;fillColor=none;align=center;verticalAlign=middle;whiteSpace=wrap;rounded=0;fontFamily=Helvetica;fontSize=11;fontColor=#000000;" vertex="1" parent="1">
                    <mxGeometry x="310" y="612" width="90" height="27" as="geometry"/>
                </mxCell>
                <mxCell id="37" value="" style="endArrow=classic;startArrow=classic;html=1;strokeWidth=1;fontFamily=yu gothic;fontSize=17;fontColor=#004C99;jumpSize=7;" edge="1" parent="1">
                    <mxGeometry width="50" height="50" relative="1" as="geometry">
                        <mxPoint x="160" y="700" as="sourcePoint"/>
                        <mxPoint x="430" y="650" as="targetPoint"/>
                    </mxGeometry>
                </mxCell>
                <mxCell id="38" value="" style="endArrow=classic;startArrow=classic;html=1;strokeWidth=1;fontFamily=yu gothic;fontSize=17;fontColor=#004C99;jumpSize=7;" edge="1" parent="1">
                    <mxGeometry width="50" height="50" relative="1" as="geometry">
                        <mxPoint x="160" y="780" as="sourcePoint"/>
                        <mxPoint x="430" y="660" as="targetPoint"/>
                    </mxGeometry>
                </mxCell>
                <mxCell id="39" value="" style="endArrow=classic;startArrow=classic;html=1;strokeWidth=1;fontFamily=yu gothic;fontSize=17;fontColor=#004C99;jumpSize=7;" edge="1" parent="1">
                    <mxGeometry width="50" height="50" relative="1" as="geometry">
                        <mxPoint x="160" y="850" as="sourcePoint"/>
                        <mxPoint x="430" y="670" as="targetPoint"/>
                    </mxGeometry>
                </mxCell>
            </root>
        </mxGraphModel>
    </diagram>
</mxfile>